<svg xmlns="http://www.w3.org/2000/svg" xmlns:xlink="http://www.w3.org/1999/xlink" width="376.887" height="376.887" viewBox="0 0 376.887 376.887">
  <defs>
    <linearGradient id="linear-gradient" x1="0.081" y1="0.145" x2="0.682" y2="0.72" gradientUnits="objectBoundingBox">
      <stop offset="0" stop-color="#17c29a"/>
      <stop offset="1" stop-color="#2badd4"/>
    </linearGradient>
    <filter id="Ellipse_39" x="0" y="0" width="376.887" height="376.887" filterUnits="userSpaceOnUse">
      <feOffset dy="8" input="SourceAlpha"/>
      <feGaussianBlur stdDeviation="10" result="blur"/>
      <feFlood flood-opacity="0.161"/>
      <feComposite operator="in" in2="blur"/>
      <feComposite in="SourceGraphic"/>
    </filter>
  </defs>
  <g id="Group_661" data-name="Group 661" transform="translate(30.5 22.5)">
    <g transform="matrix(1, 0, 0, 1, -30.5, -22.5)" filter="url(#Ellipse_39)">
      <ellipse id="Ellipse_39-2" data-name="Ellipse 39" cx="157.944" cy="157.944" rx="157.944" ry="157.944" transform="translate(30.5 22.5)" stroke="rgba(0,0,0,0)" stroke-width="1" fill="url(#linear-gradient)"/>
    </g>
    <g id="Group_395" data-name="Group 395" transform="translate(74.7 56.54)">
      <path id="Path_665" data-name="Path 665" d="M277.843,320.634c.1-5.72-1.476-6.6-2.624-7.242a5.406,5.406,0,0,1-.475-.286c-.169-.118-1.346-.914-3.3-2.229-11.106-7.5-44.9-30.319-47.83-33.156a6.484,6.484,0,0,0-7.693-.924c-.854.443-20.942,10.879-22.63,13.236-1.449,2.032-1.025,4.623,1.134,6.932,1.719,1.827,47.766,32.514,49.845,33.867a3.74,3.74,0,0,1,2.044,3.36v.061l0,.842c.076,15.168.039,20.118,0,21.6-.106,3.452-1.513,3.732-1.524,3.734a.183.183,0,0,0-.077.03c-.185.126-18.522,12.549-23.39,15.948-3.059,2.54-7.042.012-7.077-.01-.735-.507-73.47-50.523-78.321-54.056a4.85,4.85,0,0,0-4.147-1.045c-2.412.64-3.671,3.383-3.723,3.5a.186.186,0,0,0-.016.076v26.693c0,.041.017,4.144,3.222,6.228,2.022,1.174,78.616,54.152,81.956,56.686,1.808,1.374,3.241,2.185,4.766,2.185,1.379,0,2.833-.663,4.71-2.176.478-.3,7.72-5.281,16.889-11.583,14.786-10.164,33.188-22.812,35.382-24.22,3.635-2.333,2.884-7.219,2.878-7.239C277.842,371,277.73,327.033,277.843,320.634Z" transform="translate(-128.041 -214.013)" fill="#fff"/>
      <path id="Path_666" data-name="Path 666" d="M322.268,144.9c-2.048-1.187-78.643-54.165-81.955-56.686-3.448-2.615-5.531-3.192-9.481-.008-.482.306-7.813,5.345-17.1,11.726-14.7,10.1-32.989,22.674-35.169,24.077-3.639,2.335-2.889,7.22-2.884,7.24,0,.443.112,44.411.006,50.813-.1,5.715,1.47,6.6,2.617,7.239.17.1.331.186.477.287s1.129.765,2.718,1.838c30.144,20.344,46.432,31.63,48.412,33.547a6.023,6.023,0,0,0,4.3,1.8,7.231,7.231,0,0,0,3.392-.881c.854-.443,20.952-10.882,22.628-13.236,1.45-2.032,1.026-4.623-1.133-6.931-1.693-1.812-47.764-32.514-49.846-33.868a3.732,3.732,0,0,1-2.039-3.357v-.064l0-.842c-.08-15.166-.041-20.118,0-21.6.106-3.452,1.506-3.729,1.519-3.73a.194.194,0,0,0,.077-.03c.184-.124,18.522-12.548,23.388-15.945a5.243,5.243,0,0,1,7.08.008c.734.5,73.469,50.52,78.325,54.052a4.813,4.813,0,0,0,4.141,1.048c2.411-.641,3.672-3.387,3.724-3.5a.188.188,0,0,0,.016-.076v-26.69C325.485,151.086,325.468,146.981,322.268,144.9Z" transform="translate(-160.106 -86.028)" fill="#fff"/>
    </g>
  </g>
</svg>
