<svg xmlns="http://www.w3.org/2000/svg" xmlns:xlink="http://www.w3.org/1999/xlink" width="537.884" height="537.884" viewBox="0 0 537.884 537.884">
  <defs>
    <filter id="Ellipse_44" x="0" y="0" width="537.884" height="537.884" filterUnits="userSpaceOnUse">
      <feOffset dy="10" input="SourceAlpha"/>
      <feGaussianBlur stdDeviation="36.5" result="blur"/>
      <feFlood flood-color="#ccdce8"/>
      <feComposite operator="in" in2="blur"/>
      <feComposite in="SourceGraphic"/>
    </filter>
    <linearGradient id="linear-gradient" x1="0.5" y1="-0.171" x2="0.5" y2="1.134" gradientUnits="objectBoundingBox">
      <stop offset="0" stop-color="#0ed06d"/>
      <stop offset="1" stop-color="#0177b0"/>
    </linearGradient>
    <linearGradient id="linear-gradient-2" x1="0.5" y1="0.269" x2="0.5" y2="1.574" xlink:href="#linear-gradient"/>
  </defs>
  <g id="Group_404" data-name="Group 404" transform="translate(-719.594 -1645.06)">
    <circle id="Ellipse_45" data-name="Ellipse 45" cx="254.002" cy="254.002" r="254.002" transform="translate(734.534 1650)" fill="#f5f9fc"/>
    <g transform="matrix(1, 0, 0, 1, 719.59, 1645.06)" filter="url(#Ellipse_44)">
      <circle id="Ellipse_44-2" data-name="Ellipse 44" cx="159.442" cy="159.442" r="159.442" transform="translate(109.5 99.5)" fill="#fff"/>
    </g>
    <g id="Group_394" data-name="Group 394" transform="translate(896.574 1791.344)">
      <path id="Path_665" data-name="Path 665" d="M294.352,325.562c.106-6.35-1.639-7.327-2.913-8.04a6.046,6.046,0,0,1-.528-.317c-.187-.132-1.494-1.014-3.658-2.475-12.33-8.325-49.85-33.661-53.1-36.81-3.915-3.785-8.507-1.045-8.541-1.025-.949.492-23.25,12.078-25.124,14.694-1.609,2.256-1.138,5.133,1.259,7.7,1.908,2.029,53.03,36.1,55.338,37.6,2.288,1.488,2.274,3.177,2.27,3.731v.068l0,.935c.084,16.839.044,22.335,0,23.98-.118,3.832-1.679,4.143-1.692,4.145a.21.21,0,0,0-.086.033c-.2.14-20.563,13.932-25.967,17.706-3.4,2.82-7.818.013-7.857-.011-.815-.562-81.566-56.091-86.953-60.014a5.385,5.385,0,0,0-4.6-1.16c-2.678.711-4.075,3.756-4.133,3.885a.206.206,0,0,0-.018.084V359.9c0,.046.019,4.6,3.577,6.915,2.245,1.3,87.281,60.12,90.988,62.934,2.008,1.525,3.6,2.426,5.291,2.426,1.531,0,3.146-.737,5.229-2.416.53-.337,8.57-5.863,18.75-12.859,16.415-11.284,36.845-25.326,39.281-26.89,4.036-2.59,3.2-8.014,3.2-8.036C294.351,381.481,294.227,332.666,294.352,325.562Z" transform="translate(-128.041 -207.191)" fill="url(#linear-gradient)"/>
      <path id="Path_666" data-name="Path 666" d="M338.43,151.386c-2.274-1.317-87.31-60.134-90.987-62.933-3.828-2.9-6.14-3.543-10.525-.009-.535.34-8.674,5.934-18.98,13.018-16.317,11.216-36.624,25.173-39.045,26.731-4.04,2.592-3.208,8.016-3.2,8.038,0,.492.124,49.306.007,56.413-.112,6.345,1.632,7.323,2.906,8.036.188.106.367.206.529.319s1.253.849,3.017,2.04c33.466,22.586,51.549,35.116,53.747,37.244a6.687,6.687,0,0,0,4.77,2,8.029,8.029,0,0,0,3.766-.978c.949-.492,23.261-12.081,25.122-14.694,1.61-2.256,1.139-5.133-1.257-7.695-1.879-2.012-53.028-36.1-55.339-37.6-2.285-1.484-2.268-3.173-2.263-3.728v-.071l0-.935c-.089-16.837-.046-22.335,0-23.981.118-3.832,1.673-4.14,1.686-4.142a.214.214,0,0,0,.085-.034c.2-.138,20.563-13.931,25.966-17.7a5.821,5.821,0,0,1,7.86.009c.815.56,81.566,56.088,86.957,60.009a5.343,5.343,0,0,0,4.6,1.164c2.677-.711,4.077-3.761,4.135-3.89a.206.206,0,0,0,.018-.084V158.3C342,158.256,341.983,153.7,338.43,151.386Z" transform="translate(-158.397 -86.028)" fill="url(#linear-gradient-2)"/>
    </g>
  </g>
</svg>
